<svg xmlns="http://www.w3.org/2000/svg" viewBox="0 0 640 480" role="img" aria-labelledby="title desc">
  <title id="title">Nursing and care team</title>
  <desc id="desc">Premium healthcare illustration for the Aarogya gallery.</desc>
  <defs>
    <linearGradient id="room" x1="0" y1="0" x2="640" y2="480"><stop stop-color="#F7FBF9"/><stop offset="1" stop-color="#E7EFEC"/></linearGradient>
    <linearGradient id="panel" x1="120" y1="70" x2="520" y2="415"><stop stop-color="#FFFFFF"/><stop offset="1" stop-color="#DCECE7"/></linearGradient>
    <filter id="shadow" x="-20%" y="-20%" width="140%" height="140%"><feDropShadow dx="0" dy="18" stdDeviation="18" flood-color="#12332D" flood-opacity=".16"/></filter>
  </defs>
  <rect width="640" height="480" rx="34" fill="url(#room)"/>
  <circle cx="96" cy="82" r="74" fill="#1E4D45" opacity=".10"/>
  <circle cx="548" cy="392" r="98" fill="#B5622C" opacity=".10"/>
  <rect x="74" y="72" width="492" height="336" rx="28" fill="url(#panel)" filter="url(#shadow)"/>
  <rect x="112" y="112" width="180" height="132" rx="18" fill="#FFFFFF" stroke="#DCE3E0" stroke-width="3"/>
  <rect x="330" y="112" width="160" height="132" rx="18" fill="#FFFFFF" stroke="#DCE3E0" stroke-width="3"/>
  <rect x="110" y="294" width="420" height="64" rx="20" fill="#1E4D45" opacity=".92"/>
  <path d="M148 326h82l18-42 30 76 22-51h192" fill="none" stroke="#fff" stroke-width="9" stroke-linecap="round" stroke-linejoin="round" opacity=".98"/>
  <circle cx="201" cy="178" r="42" fill="#1E4D45" opacity=".18"/>
  <path d="M191 153h20v16h16v20h-16v16h-20v-16h-16v-20h16v-16Z" fill="#1E4D45"/>
  <path d="M370 178c0-25 20-45 45-45s45 20 45 45-20 45-45 45-45-20-45-45Z" fill="#B5622C" opacity=".16"/>
  <path d="M386 178h18l8-25 13 52 9-27h21" fill="none" stroke="#B5622C" stroke-width="9" stroke-linecap="round" stroke-linejoin="round"/>
  <rect x="158" y="376" width="324" height="14" rx="7" fill="#12332D" opacity=".14"/>
</svg>