<svg xmlns="http://www.w3.org/2000/svg" viewBox="0 0 128 128" role="img" aria-labelledby="title desc">
  <title id="title">Aarogya Hospital emblem</title>
  <desc id="desc">A handcrafted shield logo with a medical cross, heartbeat line, and healing leaf.</desc>
  <defs>
    <linearGradient id="bg" x1="18" y1="14" x2="110" y2="120" gradientUnits="userSpaceOnUse">
      <stop offset="0" stop-color="#2C766C"/>
      <stop offset="0.52" stop-color="#1E4D45"/>
      <stop offset="1" stop-color="#102B27"/>
    </linearGradient>
    <linearGradient id="gold" x1="34" y1="24" x2="91" y2="94" gradientUnits="userSpaceOnUse">
      <stop offset="0" stop-color="#F7D2A8"/>
      <stop offset="1" stop-color="#B5622C"/>
    </linearGradient>
    <filter id="softShadow" x="-20%" y="-20%" width="140%" height="145%">
      <feDropShadow dx="0" dy="8" stdDeviation="8" flood-color="#0A1A17" flood-opacity=".28"/>
    </filter>
  </defs>
  <rect x="8" y="8" width="112" height="112" rx="28" fill="url(#bg)"/>
  <path d="M64 22 98 36v25c0 24.5-14.2 39.9-34 48-19.8-8.1-34-23.5-34-48V36l34-14Z" fill="#F7FBF9" opacity=".98" filter="url(#softShadow)"/>
  <path d="M64 30 90 41v20c0 17.5-9.4 30.6-26 38-16.6-7.4-26-20.5-26-38V41l26-11Z" fill="url(#gold)" opacity=".22"/>
  <path d="M58 42h12v16h16v12H70v16H58V70H42V58h16V42Z" fill="#1E4D45"/>
  <path d="M31 72h17l6-15 10 31 8-20h25" fill="none" stroke="#1E4D45" stroke-width="7" stroke-linecap="round" stroke-linejoin="round"/>
  <path d="M83 88c10-2 16-9 18-18-9 1-16 6-19 14-6-8-15-12-27-11 5 11 15 17 28 15Z" fill="#2E7D4F" opacity=".95"/>
  <path d="M28 34c9-10 21-16 36-16 14 0 27 5 37 16" fill="none" stroke="#FFFFFF" stroke-width="5" stroke-linecap="round" opacity=".22"/>
</svg>
